<svg width="512" height="512" viewBox="0 0 512 512" fill="none" xmlns="http://www.w3.org/2000/svg">
<path d="M0 114.376C0 114.376 9.80515 63.8844 161.372 33.5011C312.939 3.11789 340.344 49.4415 340.344 49.4415C340.344 49.4415 342.391 57.5925 344.974 71.3803L345.029 71.6735C343.81 71.5112 342.559 71.3471 341.276 71.1812C256.833 60.2644 203.712 66.5567 169.921 78.1889C152.857 84.0628 140.636 91.3347 131.987 98.471C127.684 102.021 124.366 105.456 121.841 108.524C120.583 110.054 119.533 111.478 118.664 112.761C118.23 113.403 117.843 114.008 117.498 114.572C117.325 114.853 117.163 115.125 117.012 115.385C116.969 115.459 116.926 115.533 116.885 115.605C116.853 115.66 116.822 115.714 116.792 115.768C116.756 115.83 116.722 115.892 116.688 115.953L116.637 116.044L116.587 116.133L113.788 121.198L112.646 126.899L112.641 126.926L112.616 127.049L112.577 127.25L112.564 127.317C112.521 127.535 112.464 127.831 112.393 128.203C112.252 128.946 112.057 129.992 111.819 131.322C111.344 133.981 110.694 137.78 109.954 142.565C108.477 152.124 106.629 165.676 105.089 181.98C104.675 186.359 104.282 190.954 103.923 195.739C93.16 203.295 87.1625 216.885 89.7051 230.872C91.2724 239.494 95.8145 246.778 102.042 251.819C102.212 268.695 103.095 286.431 105.043 304.406C107.203 324.331 110.73 345.123 116.297 365.677C20.8102 296.816 0 114.376 0 114.376Z" fill="white" fill-opacity="0.46"/>
<path fill-rule="evenodd" clip-rule="evenodd" d="M161.758 387.028L161.761 387.029C144.793 345.969 139.006 298.307 138.248 255.498C137.852 233.165 138.826 212.152 140.294 194.086C143.204 158.284 148.058 134.055 148.058 134.055C148.058 134.055 148.279 133.654 148.807 132.942C148.278 133.655 148.056 134.056 148.056 134.056C148.056 134.056 143.202 158.284 140.292 194.085C138.824 212.151 137.851 233.165 138.246 255.499C139.004 298.308 144.791 345.969 161.758 387.028ZM351.024 109.512C348.403 109.12 345.703 108.732 342.922 108.35C340.93 108.076 338.913 107.807 336.873 107.543C281.71 100.411 242.242 101.174 214.17 105.293C242.242 101.174 281.71 100.413 336.872 107.544C338.93 107.81 340.946 108.079 342.922 108.35C345.667 108.728 348.368 109.117 351.025 109.515L351.024 109.512Z" fill="white"/>
<path fill-rule="evenodd" clip-rule="evenodd" d="M342.922 108.35C340.946 108.079 338.93 107.81 336.872 107.544C281.71 100.413 242.242 101.174 214.17 105.293C210.556 105.823 207.131 106.409 203.886 107.041C200.43 107.714 197.177 108.439 194.118 109.204C190.796 110.035 187.701 110.914 184.819 111.826C181.625 112.836 178.692 113.887 176.002 114.957C174.588 115.519 173.241 116.087 171.958 116.658C170.675 117.229 169.455 117.802 168.297 118.375C167.169 118.933 166.099 119.491 165.085 120.046C163.664 120.823 162.352 121.594 161.143 122.351C160.331 122.859 159.565 123.361 158.843 123.855C158.116 124.352 157.433 124.84 156.793 125.318C156.152 125.796 155.553 126.263 154.995 126.717C154.341 127.248 153.742 127.761 153.194 128.253C152.829 128.58 152.487 128.898 152.167 129.205C151.863 129.496 151.579 129.778 151.314 130.049C151.091 130.276 150.881 130.496 150.684 130.708C150.195 131.233 149.785 131.709 149.444 132.125C149.355 132.235 149.271 132.34 149.191 132.441C149.117 132.535 149.047 132.625 148.981 132.711C148.919 132.792 148.862 132.869 148.807 132.942C148.279 133.654 148.058 134.055 148.058 134.055C148.058 134.055 143.204 158.284 140.294 194.086C138.826 212.152 137.852 233.165 138.248 255.498C139.006 298.307 144.793 345.969 161.761 387.029C174.521 417.907 193.606 445.052 221.63 463.591C239.463 475.388 260.917 483.701 286.665 487.274C288.407 487.516 290.137 487.731 291.853 487.921C490.741 509.904 512 184.559 512 184.559C512 184.559 504.112 149.428 420.065 124.375C402.897 119.257 382.551 114.56 358.445 110.669C356.01 110.276 353.537 109.891 351.025 109.515C348.368 109.117 345.667 108.728 342.922 108.35ZM230.522 323.817C250.265 326.557 268.437 312.381 271.112 292.155C273.786 271.929 259.949 253.312 240.206 250.572C220.464 247.833 202.291 262.008 199.616 282.234C196.942 302.46 210.779 321.077 230.522 323.817ZM401.974 281.883L392.102 261.009C390.028 256.622 384.145 255.806 381.007 259.469L366.07 276.901C365.022 278.124 363.565 278.922 361.969 279.147L341.081 282.098L339.307 282.348C334.634 283.008 332.136 288.197 334.516 292.3L336.284 295.347L346.313 312.636C347.107 314.004 347.393 315.607 347.122 317.16L343.078 340.299C342.252 345.023 346.523 349.082 351.185 348.004L373.225 342.907C374.819 342.538 376.496 342.771 377.936 343.56L397.429 354.246L397.858 354.481C402.072 356.791 407.243 354.042 407.674 349.263L409.785 325.856C409.926 324.285 410.619 322.818 411.739 321.715L422.69 310.937L428.392 305.327C431.751 302.02 430.691 296.338 426.358 294.428L422.196 292.594L419.108 291.233L405.344 285.166C403.864 284.514 402.666 283.348 401.974 281.883Z" fill="white"/>
</svg>
