<?xml version="1.0" encoding="UTF-8" standalone="no"?>
<!DOCTYPE svg PUBLIC "-//W3C//DTD SVG 1.1//EN" "http://www.w3.org/Graphics/SVG/1.1/DTD/svg11.dtd">
<svg width="100%" height="100%" viewBox="0 0 326 326" version="1.1" xmlns="http://www.w3.org/2000/svg" xmlns:xlink="http://www.w3.org/1999/xlink" xml:space="preserve" xmlns:serif="http://www.serif.com/" style="fill-rule:evenodd;clip-rule:evenodd;stroke-linejoin:round;stroke-miterlimit:2;">
    <g transform="matrix(1.098749,0,0,1.098749,-16.096014,-39.169734)">
        <path d="M262,316.5L261,318.5L260,319.5L66,319.5L65,318.5L65,317.5L90,317.5L90.5,317L90.5,308L90,307.5L88.5,308L88.5,310L89.5,311L89,313.5L87,312.5L86,313.5L83,313.5L82,310.5L78,308.5L76.5,307L77.5,305L77.5,303L78.5,302L78.5,300L69.5,291L69.5,290L74.5,286L75.5,284L75.5,282L80,277.5L81,277.5L84,274.5L85.5,274L85.5,273L81.5,268L81.5,265L81,264.5L80,265.5L79.5,265L80.5,263L80.5,260L82.5,256L82.5,253L84.5,249L84,247.5L82.5,249L81,254.5L79.5,253L79.5,250L82.5,245L81,244.5L80.5,243L83,240.5L84.5,240L84.5,231L84,230.5L83.5,231L83.5,234L82,236.5L79.5,234L79.5,232L78.5,231L78.5,229L79.5,228L79.5,225L76,223.5L74.5,222L74.5,220L77.5,216L77.5,209L78.5,207L83.5,202L83.5,199L80,198.5L79,199.5L73.5,194L73.5,187L72.5,186L73.5,179L71.5,177L71.5,175L74,172.5L92,163.5L97,163.5L101,165.5L103,164.5L105,164.5L107,165.5L108,163.5L111,163.5L112,162.5L116,162.5L117,161.5L121,161.5L122,160.5L126,160.5L128,159.5L128.5,164L129.5,165L129.5,169L130.5,170L130.5,174L131.5,175L131.5,179L132,179.5L132.5,179L133,176.5L134.5,179L134.5,181L135,181.5L135.5,181L135.5,178L133.5,174L133.5,171L132.5,170L133,169.5L151,184.5L152.5,182L152.5,180L153.5,179L153.5,177L154.5,175L157.5,174L157.5,172L158.5,170L156,169.5L155.5,167L152,163.5L149,163.5L148,162.5L147,163.5L143.5,160L143.5,155L144.5,153L146,152.5L150,147.5L151,148.5L159,144.5L163,144.5L164,143.5L166,143.5L169.5,139L169.5,135L170.5,134L170.5,132L174.5,124L176,122.5L178,122.5L179,121.5L182,121.5L183,120.5L191,120.5L192,121.5L193,120.5L201,120.5L202,119.5L205,119.5L208.5,123L209.5,125L206.5,126L208,126.5L211.5,130L209,130.5L208.5,131L209,131.5L214,132.5L215,133.5L217,132.5L219,134.5L220,133.5L222,134.5L225,134.5L228,136.5L232,136.5L234,138.5L236,138.5L238,139.5L238.5,142L240.5,144L239.5,145L241.5,146L240.5,147L241.5,149L241.5,153L240.5,155L238.5,156L237.5,159L236,160.5L231,161.5L230,162.5L226,162.5L225,163.5L220,163.5L219,162.5L217,162.5L215.5,164L214.5,166L214.5,175L209.5,176L209.5,178L208.5,180L205.5,183L205.5,185L204,187.5L202,188.5L197,188.5L194,186.5L191.5,187L191.5,188L194.5,191L194.5,194L196.5,196L198.5,200L201.5,203L201.5,204L204.5,207L204.5,208L207.5,212L201.5,216L201.5,219L205.5,227L205.5,229L207.5,232L207.5,234L208.5,235L209.5,240L210.5,241L210.5,245L211.5,246L211.5,249L212.5,250L212.5,255L213.5,256L214,260.5L214.5,260L214.5,252L213.5,251L214,248.5L216.5,252L216.5,260L215.5,261L215,264.5L213,262.5L209,260.5L207,260.5L205,259.5L203,256.5L201,254.5L200,254.5L198,251.5L191.5,246L190.5,244L190.5,240L187.5,234L187.5,227L187,226.5L186.5,227L186,229.5L184.5,227L184.5,225L183.5,223L173,212.5L171.5,213L173.5,217L175.5,219L175.5,220L178.5,223L180.5,227L185.5,233L184,233.5L180,231.5L179.5,232L180.5,234L189.5,244L188,244.5L184,241.5L182,241.5L181.5,243L185,244.5L190,248.5L191,248.5L192.5,250L191.5,251L192,251.5L196.5,253L193,253.5L192.5,254L193,254.5L195,255.5L197,255.5L201,257.5L202.5,259L202.5,260L199.5,264L200,264.5L202,263.5L204,263.5L207,261.5L208,264.5L212.5,265L211.5,266L211.5,268L216,269.5L216.5,270L215.5,271L218,273.5L222,273.5L226,275.5L227,277.5L228,276.5L230,277.5L233,277.5L233.5,280L235.5,281L233.5,282L235,283.5L238,279.5L240,278.5L242,278.5L243,277.5L249,277.5L250.5,279L247,279.5L246.5,280L247,280.5L249,280.5L250,281.5L253,281.5L254,282.5L256.5,283L256,285.5L250,285.5L249.5,286L251,287.5L252,286.5L254,286.5L255,287.5L257.5,288L257.5,289L255.5,291L256.5,293L253.5,297L253.5,301L250.5,304L250.5,317L251,317.5L261,317.5L262,316.5ZM268,106.5L267,106.5L261.5,101L261.5,100L258.5,97L258.5,96L255,91.5L242,91.5L241,90.5L239,90.5L237,89.5L230,95.5L228,95.5L225.5,91L226.5,90L224.5,89L224.5,88L231.5,81L230.5,79L232,77.5L234,77.5L235.5,76L241.5,64L241.5,62L243.5,59L243.5,56L244.5,55L245,51.5L247,52.5L249,51.5L249.5,52L250.5,54L250.5,56L251.5,57L251.5,59L263.5,83L265.5,85L269.5,93L272.5,96L272.5,98L273.5,99L272.5,100L273.5,102L272,104.5L268,106.5ZM229.5,87L230.5,86L230,85.5L229,85.5L227.5,87L228,87.5L229.5,87ZM250.5,81L248.5,77L247,75.5L244.5,80L246,81.5L250.5,81ZM243.5,79L245.5,75L245.5,73L246.5,72L244.5,70L245.5,69L244,67.5L242.5,70L242.5,73L240.5,75L240.5,78L241,78.5L242,77.5L243,79.5L243.5,79ZM131,102.5L127,102.5L126,101.5L124,101.5L121.5,99L120.5,97L120.5,95L119.5,94L119.5,92L118.5,91L118.5,87L117.5,86L117.5,81L114,80.5L113,79.5L108.5,80L108.5,84L106.5,86L106.5,89L104.5,90L105.5,91L104.5,93L101,95.5L99.5,95L100,93.5L101.5,93L99.5,92L98.5,90L98.5,78L97.5,77L97.5,71L96.5,70L96.5,67L95.5,66L95.5,64L93,59.5L92,60.5L89,60.5L87,59.5L81,59.5L80,60.5L79,59.5L73,62.5L70,62.5L66,64.5L59.5,70L59.5,73L61,74.5L68,74.5L69,73.5L76,73.5L77,72.5L83,72.5L84,73.5L88,73.5L92.5,77L92.5,79L93.5,80L90.5,86L88.5,88L88.5,90L87,90.5L83,94.5L81,95.5L79,94.5L78,95.5L75,95.5L71,97.5L64,98.5L62.5,97L65,94.5L70,92.5L72,90.5L80,86.5L82,86.5L84.5,84L83,82.5L80,82.5L78,80.5L74.5,80L75,79.5L80,79.5L81.5,78L81,77.5L73,77.5L71,76.5L70.5,78L68,79.5L67,78.5L63,78.5L62,77.5L60,77.5L56,75.5L53.5,73L53.5,71L52.5,70L52.5,64L53.5,62L58,57.5L60,57.5L63,54.5L65,54.5L66,53.5L69,53.5L70,52.5L74,52.5L75,51.5L80,51.5L81,50.5L84,50.5L85,51.5L88,51.5L93,54.5L96,51.5L98,50.5L101.5,53L106.5,63L107.5,68L112,68.5L113,69.5L117,69.5L117.5,67L118.5,66L118.5,63L119.5,61L122,58.5L129,55.5L129.5,56L128.5,57L128.5,59L127.5,60L127.5,73L128.5,74L128.5,76L127.5,77L127.5,80L128.5,81L128.5,85L129.5,86L129.5,93L131.5,94L132.5,96L132.5,99L133.5,100L131,102.5ZM199,101.5L195,101.5L193,99.5L192,99.5L185.5,93L185.5,92L182.5,89L182.5,88L177,82.5L176.5,86L175.5,87L175.5,89L174.5,91L171,94.5L169,95.5L165.5,95L165.5,89L166.5,88L166.5,73L165.5,72L165.5,69L164.5,68L164.5,65L162,61.5L161,62.5L159,62.5L155,64.5L148,64.5L147.5,65L148.5,67L149,71.5L157,71.5L158.5,73L158.5,74L154,80.5L150,80.5L149,81.5L147,81.5L145.5,83L145.5,85L144.5,86L145,86.5L152,86.5L153,85.5L156,85.5L158.5,87L157.5,88L157.5,90L155,90.5L154.5,92L152,94.5L150,94.5L149,95.5L148,94.5L146,95.5L141,95.5L139,93.5L138,93.5L137.5,90L138.5,89L138.5,84L137.5,82L138.5,81L138.5,68L136.5,64L136.5,61L133.5,55L133.5,53L135,52.5L139,48.5L140,48.5L143,51.5L145,51.5L146,52.5L149,52.5L150,53.5L162,53.5L166,50.5L168,50.5L169,51.5L171,50.5L176,50.5L177,51.5L179,50.5L180,51.5L181,50.5L183,51.5L184,53.5L186,52.5L190.5,57L190.5,61L191.5,63L190.5,65L186,69.5L182,71.5L181.5,73L190.5,83L190.5,84L197.5,91L197.5,92L199,93.5L200.5,93L200.5,88L201.5,87L201.5,84L199.5,83L201.5,81L201.5,72L200.5,71L200.5,66L198.5,62L198.5,59L200,57.5L201,57.5L206,52.5L208,51.5L210,51.5L211,50.5L218,51.5L220,53.5L221,53.5L221.5,55L225,57.5L226.5,60L226.5,63L227.5,64L227.5,69L219,77.5L215,79.5L211.5,83L210.5,88L207.5,94L206,95.5L204,95.5L202.5,97L202.5,99L199,101.5ZM213.5,76L217,74.5L219.5,72L219.5,70L220.5,69L219.5,68L219.5,65L216,61.5L212,59.5L209,59.5L208.5,61L209.5,62L209.5,69L208.5,70L208.5,72L211,76.5L213.5,76ZM176.5,70L181,68.5L183.5,66L183.5,62L180,59.5L175,59.5L172.5,61L174.5,65L175.5,70L176,70.5L176.5,70ZM142.5,182L138,177.5L137.5,178L137.5,180L139,181.5L141,182.5L142.5,182ZM83.5,219L83,214.5L82.5,219L83,219.5L83.5,219ZM201,227.5L202.5,226L202.5,224L201.5,223L201.5,221L197,212.5L196.5,215L198.5,219L199.5,224L200.5,225L200.5,227L201,227.5ZM184.5,214L184.5,212L182.5,209L182.5,207L180.5,203L178.5,201L178.5,200L174,195.5L172,195.5L171.5,196L174.5,199L174.5,200L177.5,203L177.5,204L181.5,209L183.5,214L184,214.5L184.5,214ZM198.5,229L198.5,227L196.5,223L193,218.5L192.5,220L195.5,226L197.5,228L198,229.5L198.5,229ZM204.5,234L204,229.5L203.5,234L204,234.5L204.5,234ZM198.5,240L198.5,238L197,235.5L196.5,238L198,240.5L198.5,240ZM188.5,223L188.5,205L188,204.5L187.5,207L186.5,208L186.5,210L187.5,211L187.5,223L188,223.5L188.5,223ZM104.5,317L104.5,306L103.5,305L103.5,302L103,301.5L97,301.5L95.5,303L96.5,304L96.5,307L97.5,308L97.5,315L99,317.5L104,317.5L104.5,317ZM198.5,311L195.5,305L190,299.5L186,297.5L185.5,298L188.5,301L188.5,302L198,311.5L198.5,311ZM245.5,317L245.5,306L244,303.5L242,303.5L241.5,308L242.5,309L242.5,317L243,317.5L245.5,317ZM237.5,317L236.5,315L236.5,306L235,304.5L230,306.5L228,308.5L202,295.5L198.5,296L201,296.5L211,301.5L213,303.5L216,304.5L220.5,309L220.5,312L221.5,313L221,316.5L218.5,314L217,310.5L215,311.5L212,308.5L210.5,309L212.5,311L212.5,312L218,317.5L237,317.5L237.5,317ZM205.5,239L205,235.5L204.5,239L205,239.5L205.5,239ZM184,298.5L185.5,297L185,296.5L183,295.5L181.5,296L184,298.5ZM90.5,304L90.5,299L89,297.5L88.5,299L89.5,300L89.5,304L90,304.5L90.5,304ZM127,317.5L128.5,316L129.5,311L135.5,300L135,299.5L128,299.5L126.5,302L126.5,305L122,308.5L121.5,308L121.5,301L121,300.5L115,300.5L114.5,302L115.5,303L115.5,309L116.5,310L116.5,316L118,317.5L127,317.5ZM113.5,317L113.5,309L112.5,308L112.5,301L112,300.5L111,301.5L107.5,302L107.5,317L108,317.5L113,317.5L113.5,317Z" style="fill:white;"/>
    </g>
</svg>
